# xmcd
#
# Track frame offsets:
#	150
#	9813
#	26136
#	38849
#	46716
#	60438
#	73957
#	88303
#	96971
#	108131
#	124458
#	135032
#	146214
#	158330
#	173482
#	192370
#
# Disc length: 2729 seconds
# Revision: 0
# Processed by: cddbd v1.5.2PL0 Copyright (c) Steve Scherf et al.
# Submitted via: dBpowerAMP V12.0
#
DISCID=cc0aa710
DTITLE=Frank Wakefield, Taylor Baker and  Friends - Frank Wakefield, Taylor Baker and Friends
DYEAR=2013
DGENRE=Country
TTITLE0=Echo Blues
TTITLE1=Beautiful Dreamer
TTITLE2=Ghost Riders in The Sky
TTITLE3=Home Sweet Home
TTITLE4=Beer Barrel Polka - Under the Double Eagle
TTITLE5=Red River Valley
TTITLE6=The Girl I Left Behind Me
TTITLE7=The Last Thing on My Mind
TTITLE8=Red Wing
TTITLE9=Bonaparte's Retreat
TTITLE10=Golden Slippers
TTITLE11=Jesus Loves His Mandolin Player No. 1
TTITLE12=Arkansas Traveler
TTITLE13=My Old Kentucky Home
TTITLE14=When You and I Were Young Maggie
TTITLE15=Rockwood
EXTD=
EXTT0=
EXTT1=
EXTT2=
EXTT3=
EXTT4=
EXTT5=
EXTT6=
EXTT7=
EXTT8=
EXTT9=
EXTT10=
EXTT11=
EXTT12=
EXTT13=
EXTT14=
EXTT15=
PLAYORDER=
